<?xml version="1.0" encoding="UTF-8"?>
<svg id="Lag_1" xmlns="http://www.w3.org/2000/svg" xmlns:xlink="http://www.w3.org/1999/xlink" version="1.1" viewBox="0 0 1811.74 1611.42">
  <!-- Generator: Adobe Illustrator 30.3.0, SVG Export Plug-In . SVG Version: 2.1.3 Build 182)  -->
  <defs>
    <style>
      .st0 {
        filter: url(#drop-shadow-1);
      }

      .st1 {
        fill: #edc1c7;
        opacity: .71;
        stroke: #a6656c;
        stroke-miterlimit: 10;
        stroke-width: 3px;
      }
    </style>
    <filter id="drop-shadow-1" x="154.54" y="327.32" width="1450.56" height="1073.28" filterUnits="userSpaceOnUse">
      <feOffset dx="8.5" dy="-14.17"/>
      <feGaussianBlur result="blur" stdDeviation="14.17"/>
      <feFlood flood-color="#a87b7b" flood-opacity=".96"/>
      <feComposite in2="blur" operator="in"/>
      <feComposite in="SourceGraphic"/>
    </filter>
  </defs>
  <g class="st0">
    <path class="st1" d="M869.95,1276.71c-9.55-19.43-19.06-39.16-31.81-57.21l-15.89-2.39c-8.59-1.29-17.31-1.43-25.23,1.26,15.03,14.55,28.95,27.73,40.92,43.94,10.22,13.84,18.8,28.23,25.92,43.94,9.3,20.53,17.69,40.67,23.5,62.61l-13.67-35.42c-14.72-38.16-32.69-69.87-62.37-98.44l-16.78-16.15-19.44,3.17,16.3,16.93,17.05,14.92c7.94,6.95,15.32,13.84,21.32,22.66,9.69,14.24,16.99,29.13,23.98,44.93,7.06,15.96,13.88,31.46,18.6,48.42-13.76-31.18-28.13-72.31-49.43-98.59-5.2-6.42-11.38-11.82-17.8-17.15-11.72-9.73-22.43-19.98-32.08-31.86-7.93-1.57-14.27,1.8-21.33,4.94-23.35,10.37-49.3,13.18-74.35,9-10.16-1.89-18.84-5.32-26.92-11.22-8.43-.83-16.11-2.88-23.63-6.31-7.56-3.62-13.85-8.48-18.59-15.7-35.45,3.67-74.4-7.62-96.25-36.48-46.55-12.03-82.06-50.96-74.95-100.33-22.2,7.26-53.13,7.52-72.98-2.54l-11.75-8.2c-27.52-2.79-55.65-16.92-67.15-42.82-36.09-8.4-61.67-35.03-65.7-72.21-8.65-14.05-18.05-27.43-23.39-43.52-8.33-25.06-10.28-58.33,10.7-75.8-6.55-32.91-2.47-66.52,11.8-96.72,5.99-12.68,13.65-23.12,23.94-32.63,3.29-25.95,18.5-51.62,37.33-70.12,10.35-10.18,22.22-17.81,36.46-21.83,1.08-9.46,4.57-17.71,9.81-26.01,15.44-24.47,39.92-41.62,68.41-48.72,3.53-8.25,8.31-15.16,15.12-21.64,21.16-20.13,47.18-33.7,75.61-40.99,10.16-2.61,20.34-4.78,30.07-8.07,5.7-7.01,11.61-13.75,20-18.04,26.03-13.31,47.59-15.95,76.58-14.16,13.94-9.45,28.63-16.27,45.49-18.66,20.21-2.86,40.82-5.49,59.36,3.17,7.48-2.85,15.05-7.11,23.27-8.36,18.78-2.86,37.36-2.08,55.74.98,6.01-3.46,11.71-7.1,18.31-8.89,30.06-8.13,64.36-5.05,94.46,3.07,9.32,2.51,17.92,7.06,25.99,11.98,33.5-16.95,67.15-12.89,100.25,3.42,39.52-.84,71.8-1.51,101.57,28.02,26.62-6.56,53.81,1.49,72.56,21.03,31.73,2.69,59.62,21,74.16,48.98,25.12-1.11,50.51,13.31,67.43,31.27,7.73,8.2,12.77,18.14,16.25,28.71,30.73,12.03,58.05,35.31,61.27,69.8,30.65,12.85,50.21,44.06,52.06,77.81,31.89,20.02,50.1,55.79,46.8,94.06,36.04,45.36,30.83,105.42,3.32,154.87,11.32,38.9,3.53,81.14-22.14,112.53-3,11.13-8.26,20.2-15,29.2-20.55,24.55-48.73,45.18-82.41,41.65-6.55,16.03-22.49,24.39-39.27,29.42-18.7,5.6-37.66,6.98-57.28,6.69l-2.5-.04c-.54,0,.25,1.04.89,1.8,17.36,26.73,3.5,60.65-17.45,83.22-24.75,26.67-55.61,45.56-90.45,56.33-19.98,6.18-39.54,10.23-60.38,12.39-49.38,5.11-101.23-6.85-144.94-29.44l-16.53-1.36c-10.62,16.17-11.36,41.26-11.45,62.12-.32,1.36-.95,3.98-.6,1.68l-.74-14.33c-.78-15.17,2.44-34.71,9.45-48.24.31-.6.79-1.6.82-1.6-7.62-.96-24.96-6.11-31.53-9.69l-1.94-1.06c-.5-.27-1.23,1.7-1.22,2.45l.27,31.15,3.57,24.11c-.58,1.99-1.27.53-1.23-1.18-3.19-14-5.67-27.26-4.9-41.39l.88-16.18-22.21-13.94-.13,1.93,3.27,24.39,6.89,27.18,6.19,19.78.43,1.49.57,2.91c-.05,1.34-.35,1.6-1.17-.08l-12.72-42.37c-3.62-12.06-4.49-24.25-5.34-36.92-19.75-17.51-29.95-39.21-25.03-65.97l-24.66,6.75c7.99,32.99,17.22,65.88,28.86,98.29l16.98,47.28c.52,1.55.2,3.07-.84.97-18.78-48.3-34.76-96.3-46.92-146.27l-17.85,1.03h-9.47c9.34,14.38,17.67,28.85,24.59,44.6,1.73,3.93,3.88,7.19,4.41,12.04ZM868.95,457.16c5.05-11.44,14.78-19.43,26.29-22.59l17.99-4.95c6.8-1.87,12.72-6.08,15.41-12.57l3.91-9.42c-16.42-11.58-40.7-16.34-60.92-18.38-24.18-2.43-54.01-1.34-73.08,11.61,6.87,9.99,16.25,15.44,27.92,15.51,10.61.06,18.28,7.59,19.11,18.17.7,8.79,5.17,15.68,13.77,18.22l9.61,4.39ZM964.91,683.33c7.53-.51,13.93-2.62,18.01-8.25,8.07-11.12,20.61-4.51,25.88-7.03l10.26-4.89c1.9-6.59,3.25-12.88,3.37-19.73.19-10.69,6.64-19.45,16.59-23.17,7.76-2.91,14-7.3,19.76-13.31,3.71-3.88,8.54-6.89,13.46-9.53,10.46-5.62,18.03-15.58,18.87-28.03.67-9.92,5.34-18.25,15.24-21.83,10.06-3.64,13.14-23.18,2.33-34.43-6.28-6.54-6.91-16.52-2.18-24.28,3.74-6.13,9.34-10.53,15.01-14.92l12.87-9.97c7.33-5.68,7.03-15.07,2.2-22.99-10.02-10.25-21.81-19.24-35.97-23.72-21.65-6.86-43.71-7.48-66.42-5.05-30.23-17.46-69.63-21.27-99.47-3.35l-4.64,10.73c-3.19,7.4-11.24,10.87-18.67,13.03l-19.35,5.63c-7.43,2.16-13.08,7.59-17.4,13.62-6.63,9.25-5.71,20.05,2.02,28.58l8.95,9.88c8.06,8.9,6.86,21.55,1.71,32.25l-7.47,15.53c-4.11,8.55-3.98,18.02-1.19,27.17,6.93,22.71-11.23,30.19-8.11,47.71,4.13,3.22,6.42,7.49,6.58,12.43.54,5.56,4.44,8.58,9.67,9.74,9.03,2,10.88,9.36,19.49,8.36,11.84-1.38,21.84,5.38,25.16,16.88l3.33,11.55c2.55,4.74,6.67,9.22,10.18,12.72l19.94-1.34ZM843.1,617.85c6.43.97,12-.2,17.61-2.94l6.86-3.34c-.22-7.79,2.11-14.49,5.94-20.77,4.87-7.99,5.15-17.11,2.56-25.84-7.04-23.72,8.94-37.48,12.35-52.39,2.3-10.06-2.5-20.2-10.11-26.94-7.77-6.88-12.7-15.02-10.06-25.97l-10.03-4.8c-9.23-3.24-14.4-10.32-15.06-19.95s-7.35-16.12-16.8-16.18c-12.32-.08-22.9-6.13-29.73-16.5-11.32-1.71-22.51-3.86-34.19-3.37-10.62.45-21.53.7-31.16,4.7l-16.26,6.74c-7.73,15.28-22.21,12.74-27.95,27.93l-8.46,22.43c-4.23,11.22-1.36,22.47,7.21,30.65,8.11,7.73,15.23,16.29,18.63,27.29,4.43,14.3-9.54,27.94,2.62,44.48,7.03,9.56,11.82,20.01,15.27,31.49,2.33,7.74,3.84,14.73,1.52,23.41,18.41,4.81,31.16-6.82,47.26,6.81,8.74,7.41,20.04,9.96,31.43,7.72,18.23-3.57,21.56-17.56,40.55-14.69ZM581.11,660.32c6.44-10.59,20.05-13.91,31.45-10.84,8.51,2.29,15.81,1.32,22.51-4.52,9.6-8.36,22.96-8.28,32.68.51,5.16,4.67,10.74,8.72,18.18,8.43,7.01-10.89,18.73-5.49,20.58-17.5,1.27-8.21,7.26-13.98,14.78-17.21,4.78-17.55-6.97-41.78-17.45-56.88-10.74-15.46,1.28-27.79-1.38-40.64-2.19-10.6-8.41-19.6-16.45-26.56-10.67-9.24-14.96-22.19-9.68-35.76l9.78-25.15c1.99-5.11,7.49-9.24,12.26-11.54,6.71-3.23,11.08-7.56,15.22-14.43-20.41-8.45-52.5-4.55-74.13,2.41-9.95,3.2-18.25,8.45-27.06,14.48-24.63-2.6-48.9.35-71.19,11.08-13.93,6.7-27.43,16.86-24.16,31.95,2.16,9.97-3.78,19.34-12.36,24.59l-22.33,13.68c-5.42,3.32-11.05,8.99-12.29,15.5-2.69,14.15-3.73,27.83-4.98,41.51,7.42,6.6,14.45,11.12,23.13,14.61,11.88,4.77,16.42,19.15,10.07,30.16l-6.91,11.97c-5.66,9.8-3.04,21.79,5.35,29.23,12.48,11.06,27.69,14.05,33.41,36.83,7.08-7.06,14.46-9.66,23.37-11.07l13.46-2.13c7.22-1.14,10.46-6.63,14.15-12.71ZM1173.14,570.88l34.04-8.27c8.6-2.09,16.77-2.19,25.08.86,6.7,2.46,13.56,3.11,21.12,1.81-5.31-22.44,4.77-49.59,26.96-57.25-13.93-28.31-42.28-45.24-72.87-47.7-17.6-19-44.17-27.22-69.41-20.94,6,7.98,6.34,19.2-.95,25.12l-13.27,10.77c-5.58,3.78-10.57,7.95-14.45,13.55-4.27,6.16-5.22,15.72.18,21.38,9.2,9.65,11.02,22.18,4.66,34.29,15.86,12.01,38.97,31.24,58.92,26.39ZM380.18,580.66c9.09-6.97,20.04-7.49,30.05-3.68,7.05,2.85,14.3,2.87,21.03-.97,10.01-5.7,20.48-10.15,31.35-13.12l4.42-38.76c.84-7.33,5.35-12.8,10.67-17.54l21.85-13.15c4.33-2.61,8.5-6.23,11.75-10.04,3.87-4.53,3.72-10.02,3.48-15.8l-.4-9.69-26.16,6.42c-27.24,6.68-52.15,19.16-73.32,37.37-8.42,7.24-14.48,15.38-18.33,25.62-29.09,7.04-54.22,24.15-69.41,49.6-4.43,7.43-7.17,14.9-8.22,23.56,3.08,2.62,6.91,6.86,10.92,7.62,8.69,1.66,17.36-2.2,24.1-7.36l26.22-20.08ZM1329.55,633.49c32.34-15.23,63.77-12.87,95.61,2.32-3.55-33.06-30.71-56.18-60.53-66.79-8.7-31.33-39.32-53.88-70.76-59.08-8.65-1.5-17.18.46-24.03,6.73-12.78,11.72-18.1,30.89-13.9,47.82,17.74.99,32.99,7.97,38.71,24.36,2.3,6.59,6.38,10.35,13.36,11.91,9.32,2.08,17.94,8.68,19.38,18.35l2.15,14.39ZM1227.64,780.51l30.18-12.3c6.7-3.76,10.77-9.82,11.98-17.03,1.04-6.25,5.54-10.64,11.34-12.73,9.21-3.32,15.89-10.99,16.13-21.01.17-6.86,3.59-12.08,9.41-15.57,10.55-6.35,16.83-18.44,10.62-29.69-3.15-5.7-3.68-12.17-.55-17.98l10.25-19.01-1.18-11.47c-1.1-10.67-8.69-18.85-19.13-20.8-7.1-1.33-12.12-5.91-14.29-12.75-5.07-16.01-23.13-24.5-38.16-22.3-8.1,1.19-15.63.77-23.32-2.11-7.65-2.86-15.36-2.66-23.18-.64l-26.28,6.79c-16.04,4.15-31.77,1.32-45.34-8.42l-23.18-16.63-12.37,7.03c-10.84,6.16-1.35,32.13-26.09,44.86-7.06,3.63-12.6,8.15-18.13,13.97-9.85,10.37-31.44,8.92-31.48,31.59-.01,6.37-1.35,12.76-3.28,18.86,5.13,2.42,11.5,5.43,14.6,10.11,3.8,5.74,7.93,8.89,15.19,7.16,14.93-3.57,25.37,5.05,30.64,19.16,1.9,5.09,6.41,8.96,12.4,8.51,16.17-1.22,29.75,10.76,30.64,27.33.32,5.88,2.6,10.31,7.54,13.56,10.58,6.98,7.92,18.12,19.42,16.93,14.93-1.54,29.32,1.02,36.47,14.04,1.88,3.41,4.95,5.24,8.6,6.4l11.23,3.58,19.3-9.46ZM354.89,839.55c17.04,13.78,38.19,15.45,51.67-.46,7.4-8.74,18.61-12.62,30.12-10.7,14.06,2.34,26.58-1.17,38.35-8.72,3.71-2.38,6.26-3.99,7.82-8.28,1.75-4.83,2.59-9.27,1.03-14.34-7.16-23.23-3.5-47.48,9.46-68.01,3.39-10.76,10.94-18.11,21.45-22.57,7.28-3.09,14.13-10.88,12.77-18.87-3.73-21.91-22.18-26.76-33.09-36.92-10.04-9.35-10.66-23.56-3.52-34.91,2.66-4.24,5.86-8.84,7.29-13.58,3.07-10.19-4-19.41-13.23-23.06-4.38-1.73-8.93-3.67-12.39-6.45l-9.16-7.34c-10.05,2.81-19.35,6.44-28.46,11.54-8.14,4.55-16.3,6.21-25.31,2.59-9.87-3.96-20.56-2.49-29.29,3.82l-23.43,18.45c-7.34,5.78-15.86,8.9-25.21,9.59,2.48,23.87-6.54,47.03-28.68,56.27-8.32,4.23-12.03,12.24-9.88,21.27,2.35,9.86.69,20.2-6.11,27.95l-11.2,12.77c-17.63,20.09-17.87,44.44-7.48,69.02l14.16,5c9.26,3.27,15.67,10.41,19.89,18.92,5.88,11.87,18.59,16.64,31.29,13.82,7.16-1.59,15.1-1.7,21.15,3.19ZM277.59,724.19c10.04-9.56,16.4-21.07,13.25-34.81-2.39-10.4,1.87-19.91,11.71-24.19,12.43-5.39,20.91-15.36,24.47-28.55,2.27-8.42,4.06-17.5,1.65-25.79-4.19-2.31-7.93-4.75-11.48-8.43-28.72,7.43-52.23,35.23-64.19,62.09-4.21,9.45-6.48,19.02-8.09,28.82-8.82,7.18-15.17,15.7-20.57,25.76-16.68,31.09-21.91,66.84-14.79,101.67,4.96.68,8.95-1.77,12.67-5.01,12.28-10.68,27.23-16.59,43.43-17.46-11.3-26.23-8.92-54.22,11.95-74.11ZM821.09,876.44c13.92,7.82,22.2-2.28,34.11-1.89,7.2.24,11.95-2.45,18.05-5.49l12.95-3.73c-1.13-9.51,2.33-17.15,8.93-23.25,7.1-6.56,10.44-14.89,7.82-24.5-2.48-9.11,7.16-15.19,11.58-26.9,3-7.96.37-16.27-5.17-22.29-5.39-5.84-6.01-13.69-.56-19.63,3.37-3.67,4.93-8.73,3.86-13.74-1.26-5.86-.62-12.34,4.31-16.11l10.1-7.73c11.46-8.77,5.42-15.46,15.07-24.99l-8.46-11.26c-2.56-3.41-3.17-9.23-4.37-13.17-3.43-11.23-12.78-17.33-24.07-15.74-8.54,1.2-11.85-6.99-19.65-8.68-15.47-3.35-6.96-16.65-17.45-22.78l-11.32,4.4c-11.37,4.42-20.77-4.13-34.25,6.69-15.79,12.68-37.74,13.77-53.77.52-14.45-11.95-26.71-1.28-44.5-5.7-5.99,2.28-13.39,7.1-14.57,13.9-3.03,17.44-15.26,10.07-22.05,21.86l3.95,10.03c2.65,6.74,4.29,12.9,2.87,20.16-1.29,6.6.85,13.87,6.7,17.31l10,5.9c26.12,15.41,10.04,36.12,14.57,51.32,4.06,13.63,15.99,18.4,12.95,31.68-1.06,4.65-.52,9.86.84,14.46,2.99,10.05-1.54,19.54-8.54,26.49-9.86,9.8-9.31,22.76-.85,33.01,2.75,3.33,4.46,5.41,9.33,5.8,8.47.68,16.88,2.18,24.96,4.66,17.34,5.32,29.27-16.01,56.64-.62ZM1366.62,989.8c-.51,1.74-.84,6.08.23,7.54l6.02,8.26,10.47-10.24c4.61-4.51,11.06-5.39,16.73-8.38,15.96-8.43,20.8-29.19,13.25-45-2.09-4.37-3.95-8.53-4.97-12.9-2.53-10.87,3.78-20.25,14.1-23.51,7.65-2.42,15.07-5.29,20.86-11.13,9.38-9.47,12.85-23.52,10-36.62l-6.08-17.76c-4.33-12.66-2.43-25.27,6.44-35.08,9.58-10.59,9.86-25.39,1.53-36.98-5.34-7.44-9.84-15.15-11.74-24.1-1.35-10.88,1.87-21.75,11.05-27.95,6.6-4.46,14.74-4.36,22.75-2.28-1.2-24.66-12.58-46.92-30.59-62.8-7-6.17-14.67-9.44-23.09-13.08-33.99-14.68-59.16-17.26-93.92-1.72-8.08,13.42-16.64,23.33-9.27,37.06,3.46,6.44,2.14,14.57-1.94,20.67-7.35,11-18.42,10.7-18.91,24.29-.37,10.16-6.39,18.33-15.92,21.77-6.17,2.23-10.71,6.6-11.82,13.26-1.24,7.45-5.79,12.93-12.16,16.86l-21.49,9.37c-9.46,4.12-18.79,7.41-27.75,12.61,7.57,9.18,10.01,19.41,7.99,30.37-1.39,7.58,1.2,13.74,6.7,19.17l17.14,10.75c13.45,8.43,20.86,23.21,23.26,38.78,2.87,6.03,8.93,9.13,15.56,9.26,12.33.3,21.46,7.86,26,18.85,4.23,10.24,11.66,16.76,22.18,19.88,23.48,6.96,44.52,26.63,37.38,50.75ZM623.74,912.4c18.64-4.74,22.75,9.72,36.71,11.14,10.75-27.33,33.82-16.46,43.75-33.61,5.82-10.06,15.06-16.2,27.04-18.34-7.54-8.05-11.92-17.01-9.41-27.2,1.48-6,6.11-10.99,9.99-15.49,6.48-7.48,7.79-16.27,4.28-25.28-1.72-4.43.1-9.41.6-14.48,1.15-11.64-20.08-20-13.42-45.99,4.32-16.87-3.93-27.26-19.08-34.49-8.81-4.21-14.1-12.89-12.1-22.67,1.29-6.31.09-11.86-2.4-17.83l-4.77-11.43c-6.49-.51-12.22-3.22-16.7-7.87-9.34-9.72-23.54-9.7-33.21-1.06-6.2,5.54-14.49,6.39-21.9,4.29-14.53-4.1-27.38,2.28-33.76,15.26-2.67,5.42-10.38,7.9-15.74,8.81l-15.91,2.7c-5.77.98-14.85,5.38-16.78,11.36-2.88,8.92-6.73,15.2-15.79,18.89-8.85,3.6-16.22,10.42-18.94,19.79-7.84,12.94-12.97,27.07-13.47,42.39-.34,10.46,2.32,20.13,4.51,30.3,1.03,4.8-2.78,9.97-3.83,14.34.47,7.5,6.38,14.16,12.93,17.5l13.24,6.75c13.37,6.81,19.64,21.13,17.6,35.8l-.76,13.28c9.75.49,18.1,2.02,26.77,5.25,17.87,6.65,27.14-7.06,39.76-3.85,14.79,3.77,12.52,26.37,30.78,21.73ZM1104.69,883.69c15.56-9.05,33.61-13.43,47.26-1.16,10.71,9.62,25.09,12.08,39.29,9.96,7.48-1.12,14.62-.35,20.79,3.81,6.36,3.78,13.1,3.43,19.8.67,9.71-3.99,19.58-6.69,30.85-5.55-2.03-19.16-13.87-34.73-31.55-43.18-10.45-5-17.18-14.08-15.17-25.88,1.95-11.47-1.11-22.29-9.5-30.51l-9.13-2.63c-4.13-1.19-8.05-3.07-10.23-6.84-14.4-25.02-40.91-5.7-46.91-20.01-5.48-13.08-16.84-11.13-17.54-26.47-.71-15.46-13.19-26.61-28.32-25.29-6.94.61-12.16-4.01-14.53-9.78-5.27-12.87-13.6-21.51-27.3-18.16-8.47,2.07-14.17-1.19-18.66-8.09-2.95-4.54-9.9-7.44-14.83-9.17-6.24,4.66-11.77,6.8-19.07,5.49-4.67-.84-10.8.41-13.71,4.32-12.04,16.16-26.22,7.11-40.63,12.43-5.94,2.19-7.2,9.28-8.5,14.52-3.47,14.04-26.32,14.05-21.93,33.37,3.07,13.51-15.32,18.04-3.62,31.59,6.91,8,9.62,19.25,3.75,28.22l-7.52,11.5c-1.94,2.96-3.06,7.61-2.19,11.14,2.43,9.8-1.14,18.5-8.32,25.24-6.56,6.16-9.51,13.25-8.4,22.82l10.96,3.79c4.33,1.5,8.35,4.29,10.24,8.62,6.06,13.94,20.03,4.84,31.01,7.07,11.58,2.35,18.4,13.31,18.4,24.58,0,4.75,1.43,8.55,4.57,10.98,9.51,7.37,21.49-3.77,35.97,9.9,17.07-4.92,26.05-10.12,33.09-26.8,4.68-11.1,13.32-18.67,25.28-20.9,21-3.9,27.88,11.11,46.29.4ZM1357.31,1064.86l-6.82,8.61c-3.23,16.49,3.74,29.65,20.15,34.03l23.64,6.3c8.04,2.14,14.59,9.12,15.37,17.28l1.27,13.23c9.17,1.05,17.91-.08,26.7-2.63,16.08-4.41,29.21-13.51,41.18-24.84,12.49-11.81,22.03-25.07,27.09-41.96,24.85-31.74,33.47-72.52,21.69-111.67l12.37-27.08c15.68-44.19,13.8-89.78-15.81-126.9,3.05-34.53-11.41-67.64-38.79-88.13-4.46-3.34-8.69-5.44-14.1-6.06-8.81-1.31-17.22,1.98-21.87,9.82-5.42,9.12-4.82,20.33.56,29.55l9.9,16.97c6.27,10.74,4.88,23.46-2.8,33.06-11.37,14.22-12.92,23.69-5.04,40.93,6.48,14.18,6.82,30.12-1.26,43.68-5.5,9.23-14.66,14.89-24.97,17.92-6.69,1.97-13.14,6-14.85,13.27-1.37,5.82.36,12.5,3.31,17.86,9.15,16.66,6.06,37.19-9.29,49.01l-13.87,6.17c-7.1,3.16-12.17,9.8-17.19,15.65l-7.65,16.4c-1.64,3.51-2.82,7.71-2.06,11.63,1.96,10.1-.24,19.59-6.84,27.91ZM489.21,935.56c-2.87-12.79,2.02-25.32,12.28-33.58,6.5-5.24,14.1-8.62,22.03-12.08l1.06-12.58c2.71-16.95-6.12-31.73-22.05-38.09-9.59-3.83-17.97-9.3-21.15-20.23l-8.97,5.13c-10.95,6.27-22.74,8.84-35.34,6.64-11.09-1.94-21.48,1.7-28.7,10.15-13.53,15.82-36.8,15.59-52,2.66-5.67-4.82-12.86-7-20.46-5.02-14.92,3.88-29.42-2.05-36.42-16.17-3.54-7.15-8.87-13.13-16.9-15.98-4.7-1.67-10.59-4.69-15.85-4.98-16.35-.92-32.45,6.74-44.1,17.54-4.56,4.23-9.35,3.36-14.33,5.2-8.86,4.52-12.83,16.59-14.36,26.2-5.07,31.9,9.03,63.08,28.45,88.4,1.99,36.61,29.22,64.07,64.77,71.7,9.92,25.58,39.82,40.11,66.24,42.54,21.16,19.29,58.69,19.4,84.64,9.76l-5.45-15.64c-3.59-10.3-.41-21.22,6.92-29.19,7.89-8.59,8.31-18.41,20.53-23.29,9.53-3.81,14.57-12.2,13.8-22.62-1.25-16.89,18.61-22.01,15.37-36.45ZM809.94,1092.12c10.56-4.87,20.82-4.94,31.06-.62,25.91,10.93,55.7,11.85,74.55-10.24,4.43-5.19,10.36-8.79,17.13-9.75,10.4-1.48,17.99-6.74,25-14.14,11.2-11.8,20.18-23.31,12.83-39.44-5.82-12.77-1.49-25.87,9.85-33.76,7.43-5.17,10.89-13.01,9.75-22.09-.52-4.13,1.09-8.8,2.5-12.55l6.15-16.38c-14.21-13.95-26.55-1.31-36.39-10.35-3.33-3.06-5.56-7.03-5.46-12.66.18-9.97-5.97-20.08-16.25-22.13s-25.58,7.38-32.81-8.41c-1.95-4.27-6.32-6.69-10.86-8.04l-9.92-2.94c-7.27-2.16-18.43,8.41-32.79,8.36-10.49-.03-19.02,10.32-35.07,1.38-10.65-5.93-22.98-6.88-34.06-1.34-8.46,4.24-17.54,4.81-26.3.53l-27.06-3.77c-10.96,2.63-19.5,7.49-24.96,16.84-4.25,7.29-11.21,11.66-19.53,13.34-12.49,2.51-21.49,10.98-25.52,22.78,7.39,15.34,5.78,31.6-2.75,45.88-4.24,7.09-3.82,15.41,1.5,21.47,6,6.84,6.96,15.76,2.95,24.07-3.93,8.16-3.47,17.15,2.92,24.17,6.58,7.23,11.01,15.47,16.26,23.84,13.08,12.62,33.95,6.02,49.9,24.79,15.95,18.78,54.06,11.9,77.37,1.16ZM1185.62,1147.06c12.33,3.26,23.97,4.45,35.47-.09,7.24-7.39,15.95-12.06,26.28-13.64,8.92-2,17.75-4.85,25.19-9.61,7.92-5.06,11.4-11.43,14.87-19.77,4.07-9.77,15.7-18.28,26.41-18.58,11.74-.33,20.58-2.68,30-9.8,11.04-8.35,20.71-22.3,18.17-36.4-1.21-6.73.47-11.88,3.31-17.87l5.81-12.25-4.21-6.74c-2.42-3.87-4.38-7.63-2.95-12.22,7.46-23.93-13.98-42.44-37.27-49.54-10.65-3.25-18.13-10.32-22.24-20.77-3.95-10.04-12.95-16.95-23.91-16.95-6.71,0-11.05-2.77-15.84-7.69-3.26-1.74-10.31-2.14-14.37-.95l-20.24,5.92c-18.41,5.39-17.83-6.39-35.52-5.44l-14.44.78c-11.42.61-22.02-4.15-30.52-11.63-12.14-10.68-28.43-6.57-42.32,1.46-8.83,5.1-18.23,6.52-27.77,2.53-11.04-4.62-24.23-3.64-33.94,3.8-11.04,8.45-14.19,28.68-26.04,33.9l-17.94,7.92-6.62,16.49c-5.38,13.41,3.42,24.13-13.49,36.36-10.11,7.31-14.1,18.92-8.76,30.46,4.71,10.18,3.67,21.49-3.52,30.4-2.75,3.41-2.85,6.03-1.04,9.95,3.31,7.18,7.68,12.97,15.56,15.62,7.42,2.5,13.84,8.44,15.34,16.51l2.51,13.54c3.74,20.18,21.49,13.75,24.82,37.2l2,14.06,18.88.88c7.06.33,13.61-2.84,19.6-6.24s11.84-5.02,18.15-6.87c10.71-3.14,20.9-3.81,31.6-.28,8.34,2.75,16.71,1.17,24.25-2.76,7.62-3.97,16.29-3.73,24.1-.42l20.63,8.74ZM638.14,1132.8c12.37-2.03,20.15-10.6,21.4-22.9,1.55-15.14,18.38-21.12,20.58-40.57-3.01-9.7-9.01-18.01-15.93-25.75-6.67-7.46-7.16-17.11-3.08-25.89,3.3-7.1,3.52-15.25-1.92-21.43-6.29-7.14-7.51-16.3-2.27-24.84,8.63-14.05,9.27-30.68,1.83-45.48-13.53-2.49-17-15.55-35.42-10.97-7.01,1.74-13.75-.99-17.39-7.18l-4.02-6.84c-4.81-8.19-13.34-10.59-22.02-6.32-9.58,4.72-19.49,5.83-29.46,1.7-7.87-3.26-16.25-4.21-24.8-4.52-19.87,6.91-38.57,21.04-34.03,42.36,3.79,17.8-16.77,20.5-15.54,40.94.58,9.66-4.92,17-13.51,20.92-14.19,6.47-12.68,14.62-19.47,21.46-7.99,8.05-11.47,18.84-7.75,29.93l5.02,14.95c-9.96,49.25,25.82,90.59,73.06,101.6,20.1,28.38,58.91,39.43,92.3,36.6-9.06-10.05-9.71-23.31-2.4-33.95,2.39-3.48,4.01-7.26,4.67-11.49,1.6-16.37,15.17-19.87,30.16-22.33ZM615.04,1207.8c10.37,9.22,22.49,13.32,35.82,14.71,8.27,5.68,16.96,9.35,27.1,11.09,25.57,4.38,51.76,1.23,75.25-9.91,4.33-2.05,8.28-4.03,13.22-4.14,10.22-.22,19.94-1.5,29.82-3.86,10.43-2.49,20.24-2.57,30.75-.39,20.93,4.34,41.55,3.07,61.65-4.21,3.99-1.44,8.4-2.02,12.59-1.52,17.41,2.07,23.97-6.17,34.05-6.68,12.18-.61,23.33-3.23,34.64-7.34,14.01-5.1,25.55-13.48,35.93-23.97l20.12-17.09-2.65-17.54c-1.21-8.01-6.79-13-13.4-16.72-19.06-10.72-2.42-37.62-30.24-46.85-8.3-2.75-11.99-10.82-15.28-19.17l-10.21,9.71c-5.32,5.06-12.22,8.42-19.37,9.39-8.69,1.19-14.56,6.03-20.02,12.14-17.53,19.58-50.42,19.11-72.92,9-10.8-4.86-21.04-4.83-31.86.16-16.77,7.73-34.93,11.62-53.21,10.11-12.11-1-21.42-6.05-29.18-14.99-10.2-11.76-30.26-10.88-45.2-19.04-1.3,7.7-4.23,14.57-9.33,19.94-6.64,6.99-11.39,14.95-12.19,24.76-2.07,8.72-7.88,15.98-16.93,18.14l-18.49,4.41c-7.79,1.86-13.94,8.21-14.87,16.04-.54,4.59-1.78,8.96-4.45,12.48-8.47,11.2-6.72,26,3.99,34.83l4.86,6.48ZM1346.92,1178.7c21.69-2.39,55.02-12.13,61.19-33.91l-1.31-14.67c-.61-6.82-7.15-12.4-13.76-14.14l-23.66-6.21c-15.22-3.99-23.8-16.85-22.01-33.42-8.27,4.93-14.95,10.71-24.36,10.47-13.53-.34-27.74,5.33-33.45,18.54-3.39,7.84-6.82,14.7-14.58,19.77-19.61,12.82-38.04,7.99-51.99,23.49,12.74,3.89,20.8,12.74,31.82,16.76,34.43,12.57,55.16,17.38,92.11,13.32ZM990.69,1299.18c39.68,23.24,84.49,35.7,130.45,35.88,30.97.12,60.6-5.79,89.56-15.71,34.2-11.72,64.54-31.53,87.6-59.12,17.84-21.33,28.39-55.97,9.02-77.68-20.45-4.58-41.11-8.43-59.96-17.92-9.41-4.74-16.91-11.92-27.71-14.29-10.78,2.77-22.43,3.73-33.19-.6l-22.11-8.89c-7.9-3.18-16.17-3.47-23.61.62-16.19,8.9-29.31-1.18-42.56.31-10.05,1.13-19.85,3.75-28.58,8.45-11.45,6.17-23.2,8.98-36.43,6.54-3.13-.58-6.76.81-9.45,2.48l-21.81,19.31c-15.04,13.32-32.64,21.6-53.04,25.35-9.71,15.94-10.28,37.39,1.55,52.8l10.88,14.16c8.37,10.89,16.68,20.83,29.39,28.27ZM994.53,1304.75c-13.71-8.64-25.52-17.27-33.69-30.37l-10.36-13.64c-13.32-15.93-14.93-37.49-5.13-55.91l-15.36,1.46c-10.29,5.26-20.15,6.82-32.31,5.16-6.43,26.1,5.71,51.21,26.89,67.23,20.22,15.29,44.13,24.97,69.97,26.09Z"/>
    <path class="st1" d="M1185.62,1147.06l-20.63-8.74c-7.81-3.31-16.48-3.55-24.1.42-7.54,3.93-15.92,5.52-24.25,2.76-10.69-3.53-20.89-2.86-31.6.28-6.3,1.85-12.33,3.57-18.15,6.87s-12.53,6.56-19.6,6.24l-18.88-.88-2-14.06c-3.33-23.45-21.07-17.02-24.82-37.2l-2.51-13.54c-1.5-8.07-7.92-14.01-15.34-16.51-7.87-2.65-12.24-8.44-15.56-15.62-1.81-3.92-1.71-6.54,1.04-9.95,7.19-8.92,8.23-20.23,3.52-30.4-5.35-11.55-1.35-23.16,8.76-30.46,16.92-12.23,8.11-22.95,13.49-36.36l6.62-16.49,17.94-7.92c11.85-5.23,15-25.45,26.04-33.9,9.71-7.44,22.89-8.42,33.94-3.8,9.53,3.99,18.94,2.56,27.77-2.53,13.89-8.02,30.18-12.14,42.32-1.46,8.5,7.48,19.09,12.25,30.52,11.63l14.44-.78c17.68-.95,17.11,10.82,35.52,5.44l20.24-5.92c4.07-1.19,11.11-.79,14.37.95,4.79,4.93,9.13,7.7,15.84,7.69,10.97,0,19.96,6.91,23.91,16.95,4.11,10.44,11.59,17.52,22.24,20.77,23.28,7.11,44.72,25.61,37.27,49.54-1.43,4.59.54,8.35,2.95,12.22l4.21,6.74-5.81,12.25c-2.84,5.99-4.52,11.14-3.31,17.87,2.54,14.1-7.13,28.05-18.17,36.4-9.42,7.12-18.25,9.47-30,9.8-10.7.3-22.33,8.81-26.41,18.58-3.48,8.34-6.96,14.71-14.87,19.77-7.44,4.75-16.26,7.6-25.19,9.61-10.34,1.57-19.04,6.25-26.28,13.64-11.5,4.54-23.14,3.35-35.47.09Z"/>
    <path class="st1" d="M809.94,1092.12c-23.31,10.74-61.42,17.62-77.37-1.16-15.95-18.77-36.82-12.17-49.9-24.79-5.26-8.36-9.69-16.61-16.26-23.84-6.39-7.02-6.86-16.01-2.92-24.17,4.01-8.31,3.05-17.23-2.95-24.07-5.32-6.06-5.74-14.38-1.5-21.47,8.53-14.28,10.14-30.54,2.75-45.88,4.03-11.8,13.03-20.26,25.52-22.78,8.33-1.67,15.29-6.05,19.53-13.34,5.45-9.35,14-14.21,24.96-16.84l27.06,3.77c8.76,4.28,17.83,3.71,26.3-.53,11.08-5.55,23.4-4.59,34.06,1.34,16.05,8.94,24.59-1.41,35.07-1.38,14.36.05,25.53-10.51,32.79-8.36l9.92,2.94c4.54,1.35,8.91,3.77,10.86,8.04,7.23,15.8,22.1,6.28,32.81,8.41s16.44,12.15,16.25,22.13c-.1,5.62,2.13,9.6,5.46,12.66,9.85,9.04,22.19-3.59,36.39,10.35l-6.15,16.38c-1.41,3.75-3.02,8.43-2.5,12.55,1.14,9.08-2.32,16.92-9.75,22.09-11.34,7.89-15.67,20.99-9.85,33.76,7.35,16.13-1.63,27.63-12.83,39.44-7.01,7.39-14.61,12.66-25,14.14-6.78.96-12.7,4.56-17.13,9.75-18.85,22.09-48.64,21.17-74.55,10.24-10.24-4.32-20.5-4.25-31.06.62Z"/>
    <path class="st1" d="M1104.69,883.69c-18.41,10.71-25.3-4.31-46.29-.4-11.96,2.22-20.6,9.8-25.28,20.9-7.04,16.68-16.02,21.88-33.09,26.8-14.48-13.68-26.46-2.53-35.97-9.9-3.14-2.43-4.56-6.23-4.57-10.98,0-11.26-6.83-22.22-18.4-24.58-10.98-2.23-24.94,6.87-31.01-7.07-1.88-4.32-5.91-7.12-10.24-8.62l-10.96-3.79c-1.12-9.58,1.83-16.66,8.4-22.82,7.18-6.74,10.75-15.44,8.32-25.24-.88-3.53.25-8.18,2.19-11.14l7.52-11.5c5.87-8.98,3.16-20.22-3.75-28.22-11.71-13.55,6.69-18.08,3.62-31.59-4.39-19.31,18.46-19.32,21.93-33.37,1.3-5.25,2.55-12.33,8.5-14.52,14.41-5.32,28.6,3.73,40.63-12.43,2.91-3.91,9.04-5.16,13.71-4.32,7.3,1.31,12.83-.83,19.07-5.49,4.93,1.73,11.88,4.63,14.83,9.17,4.49,6.9,10.2,10.15,18.66,8.09,13.69-3.34,22.02,5.29,27.3,18.16,2.36,5.77,7.59,10.39,14.53,9.78,15.13-1.32,27.61,9.83,28.32,25.29.7,15.33,12.07,13.39,17.54,26.47,6,14.31,32.5-5,46.91,20.01,2.17,3.78,6.1,5.66,10.23,6.84l9.13,2.63c8.38,8.23,11.44,19.05,9.5,30.51-2.01,11.8,4.72,20.89,15.17,25.88,17.68,8.45,29.52,24.02,31.55,43.18-11.27-1.14-21.14,1.56-30.85,5.55-6.7,2.75-13.44,3.11-19.8-.67-6.17-4.16-13.3-4.92-20.79-3.81-14.21,2.12-28.58-.34-39.29-9.96-13.65-12.27-31.71-7.88-47.26,1.16Z"/>
    <path class="st1" d="M489.21,935.56c3.24,14.44-16.62,19.56-15.37,36.45.77,10.41-4.26,18.8-13.8,22.62-12.22,4.89-12.64,14.71-20.53,23.29-7.33,7.97-10.51,18.89-6.92,29.19l5.45,15.64c-25.95,9.64-63.48,9.53-84.64-9.76-26.42-2.43-56.32-16.96-66.24-42.54-35.55-7.62-62.78-35.09-64.77-71.7-19.42-25.32-33.52-56.5-28.45-88.4,1.53-9.61,5.5-21.68,14.36-26.2,4.98-1.85,9.77-.98,14.33-5.2,11.65-10.8,27.75-18.46,44.1-17.54,5.26.29,11.16,3.32,15.85,4.98,8.03,2.85,13.36,8.83,16.9,15.98,6.99,14.12,21.5,20.05,36.42,16.17,7.6-1.97,14.79.2,20.46,5.02,15.21,12.93,38.47,13.16,52-2.66,7.22-8.45,17.62-12.09,28.7-10.15,12.6,2.2,24.39-.37,35.34-6.64l8.97-5.13c3.19,10.93,11.57,16.4,21.15,20.23,15.94,6.37,24.76,21.14,22.05,38.09l-1.06,12.58c-7.93,3.47-15.53,6.85-22.03,12.08-10.25,8.26-15.15,20.8-12.28,33.58Z"/>
    <path class="st1" d="M1366.62,989.8c7.13-24.13-13.9-43.79-37.38-50.75-10.52-3.12-17.96-9.65-22.18-19.88-4.54-10.99-13.68-18.55-26-18.85-6.62-.13-12.68-3.22-15.56-9.26-2.4-15.57-9.81-30.34-23.26-38.78l-17.14-10.75c-5.49-5.43-8.09-11.59-6.7-19.17,2.01-10.96-.43-21.19-7.99-30.37,8.96-5.21,18.29-8.49,27.75-12.61l21.49-9.37c6.38-3.94,10.93-9.41,12.16-16.86,1.11-6.66,5.65-11.03,11.82-13.26,9.53-3.45,15.55-11.62,15.92-21.77.49-13.6,11.56-13.29,18.91-24.29,4.08-6.1,5.4-14.23,1.94-20.67-7.37-13.72,1.19-23.64,9.27-37.06,34.76-15.54,59.94-12.96,93.92,1.72,8.41,3.64,16.09,6.91,23.09,13.08,18.01,15.88,29.39,38.14,30.59,62.8-8.01-2.07-16.16-2.17-22.75,2.28-9.18,6.2-12.4,17.07-11.05,27.95,1.9,8.95,6.4,16.67,11.74,24.1,8.33,11.59,8.05,26.38-1.53,36.98-8.87,9.81-10.77,22.42-6.44,35.08l6.08,17.76c2.85,13.1-.62,27.14-10,36.62-5.79,5.84-13.21,8.72-20.86,11.13-10.33,3.26-16.63,12.64-14.1,23.51,1.02,4.36,2.88,8.53,4.97,12.9,7.55,15.81,2.72,36.57-13.25,45-5.67,3-12.12,3.88-16.73,8.38l-10.47,10.24-6.02-8.26c-1.07-1.47-.74-5.81-.23-7.54Z"/>
    <path class="st1" d="M990.69,1299.18c-12.71-7.45-21.02-17.38-29.39-28.27l-10.88-14.16c-11.84-15.41-11.26-36.86-1.55-52.8,20.4-3.74,38-12.03,53.04-25.35l21.81-19.31c2.69-1.67,6.32-3.06,9.45-2.48,13.23,2.43,24.98-.37,36.43-6.54,8.73-4.71,18.53-7.32,28.58-8.45,13.25-1.49,26.37,8.59,42.56-.31,7.44-4.09,15.7-3.8,23.61-.62l22.11,8.89c10.76,4.32,22.42,3.36,33.19.6,10.8,2.37,18.3,9.55,27.71,14.29,18.85,9.49,39.51,13.33,59.96,17.92,19.37,21.71,8.81,56.35-9.02,77.68-23.07,27.58-53.41,47.4-87.6,59.12-28.96,9.92-58.59,15.83-89.56,15.71-45.96-.18-90.77-12.65-130.45-35.88Z"/>
    <path class="st1" d="M638.14,1132.8c-14.99,2.46-28.56,5.96-30.16,22.33-.65,4.23-2.28,8.01-4.67,11.49-7.3,10.64-6.65,23.9,2.4,33.95-33.39,2.84-72.2-8.22-92.3-36.6-47.24-11-83.02-52.34-73.06-101.6l-5.02-14.95c-3.72-11.08-.24-21.88,7.75-29.93,6.79-6.84,5.28-14.99,19.47-21.46,8.59-3.92,14.09-11.27,13.51-20.92-1.23-20.44,19.33-23.14,15.54-40.94-4.54-21.32,14.16-35.45,34.03-42.36,8.55.31,16.94,1.26,24.8,4.52,9.97,4.13,19.88,3.03,29.46-1.7,8.68-4.28,17.2-1.88,22.02,6.32l4.02,6.84c3.63,6.19,10.38,8.92,17.39,7.18,18.42-4.58,21.89,8.48,35.42,10.97,7.44,14.8,6.8,31.44-1.83,45.48-5.24,8.54-4.03,17.7,2.27,24.84,5.45,6.18,5.23,14.32,1.92,21.43-4.08,8.78-3.6,18.42,3.08,25.89,6.92,7.74,12.92,16.05,15.93,25.75-2.2,19.45-19.03,25.43-20.58,40.57-1.25,12.29-9.03,20.87-21.4,22.9Z"/>
    <path class="st1" d="M964.91,683.33l-19.94,1.34c-3.51-3.5-7.63-7.98-10.18-12.72l-3.33-11.55c-3.32-11.5-13.32-18.26-25.16-16.88-8.6,1-10.46-6.36-19.49-8.36-5.23-1.16-9.13-4.18-9.67-9.74-.16-4.94-2.45-9.22-6.58-12.43-3.11-17.52,15.05-25.01,8.11-47.71-2.8-9.15-2.93-18.62,1.19-27.17l7.47-15.53c5.14-10.7,6.35-23.34-1.71-32.25l-8.95-9.88c-7.73-8.54-8.64-19.34-2.02-28.58,4.32-6.03,9.97-11.46,17.4-13.62l19.35-5.63c7.43-2.16,15.48-5.63,18.67-13.03l4.64-10.73c29.84-17.92,69.25-14.11,99.47,3.35,22.72-2.43,44.77-1.81,66.42,5.05,14.16,4.48,25.95,13.47,35.97,23.72,4.82,7.92,5.12,17.31-2.2,22.99l-12.87,9.97c-5.67,4.39-11.27,8.79-15.01,14.92-4.73,7.75-4.1,17.74,2.18,24.28,10.81,11.25,7.73,30.8-2.33,34.43-9.9,3.58-14.57,11.91-15.24,21.83-.84,12.45-8.41,22.41-18.87,28.03-4.93,2.64-9.75,5.66-13.46,9.53-5.75,6.01-11.99,10.41-19.76,13.31-9.95,3.72-16.4,12.47-16.59,23.17-.12,6.85-1.47,13.14-3.37,19.73l-10.26,4.89c-5.27,2.51-17.81-4.1-25.88,7.03-4.08,5.63-10.48,7.74-18.01,8.25Z"/>
    <path class="st1" d="M623.74,912.4c-18.26,4.64-15.99-17.96-30.78-21.73-12.62-3.21-21.89,10.5-39.76,3.85-8.67-3.23-17.03-4.76-26.77-5.25l.76-13.28c2.04-14.67-4.23-28.98-17.6-35.8l-13.24-6.75c-6.55-3.34-12.46-10-12.93-17.5,1.05-4.36,4.86-9.54,3.83-14.34-2.18-10.17-4.85-19.84-4.51-30.3.5-15.32,5.63-29.45,13.47-42.39,2.72-9.37,10.09-16.19,18.94-19.79,9.07-3.69,12.91-9.96,15.79-18.89,1.93-5.98,11.01-10.38,16.78-11.36l15.91-2.7c5.36-.91,13.08-3.4,15.74-8.81,6.39-12.98,19.24-19.36,33.76-15.26,7.41,2.09,15.71,1.25,21.9-4.29,9.67-8.64,23.86-8.66,33.21,1.06,4.48,4.65,10.21,7.36,16.7,7.87l4.77,11.43c2.49,5.97,3.69,11.52,2.4,17.83-2,9.78,3.29,18.47,12.1,22.67,15.15,7.23,23.41,17.63,19.08,34.49-6.66,25.99,14.56,34.35,13.42,45.99-.5,5.07-2.33,10.04-.6,14.48,3.5,9.01,2.2,17.8-4.28,25.28-3.88,4.5-8.52,9.49-9.99,15.49-2.51,10.18,1.86,19.14,9.41,27.2-11.98,2.14-21.22,8.28-27.04,18.34-9.92,17.15-33,6.28-43.75,33.61-13.96-1.42-18.07-15.88-36.71-11.14Z"/>
    <path class="st1" d="M354.89,839.55c-6.05-4.89-13.99-4.78-21.15-3.19-12.7,2.82-25.4-1.95-31.29-13.82-4.22-8.51-10.63-15.65-19.89-18.92l-14.16-5c-10.38-24.58-10.15-48.93,7.48-69.02l11.2-12.77c6.8-7.75,8.46-18.08,6.11-27.95-2.15-9.02,1.56-17.04,9.88-21.27,22.14-9.24,31.15-32.4,28.68-56.27,9.36-.7,17.87-3.81,25.21-9.59l23.43-18.45c8.72-6.31,19.42-7.78,29.29-3.82,9.01,3.62,17.17,1.96,25.31-2.59,9.12-5.1,18.42-8.73,28.46-11.54l9.16,7.34c3.47,2.78,8.01,4.72,12.39,6.45,9.24,3.64,16.3,12.87,13.23,23.06-1.43,4.74-4.62,9.34-7.29,13.58-7.13,11.35-6.52,25.56,3.52,34.91,10.91,10.16,29.36,15.01,33.09,36.92,1.36,7.98-5.49,15.78-12.77,18.87-10.5,4.45-18.05,11.81-21.45,22.57-12.97,20.53-16.62,44.79-9.46,68.01,1.56,5.06.73,9.51-1.03,14.34-1.56,4.3-4.11,5.9-7.82,8.28-11.77,7.55-24.29,11.06-38.35,8.72-11.51-1.92-22.72,1.96-30.12,10.7-13.47,15.91-34.63,14.24-51.67.46Z"/>
    <path class="st1" d="M581.11,660.32c-3.7,6.08-6.93,11.57-14.15,12.71l-13.46,2.13c-8.91,1.41-16.29,4.01-23.37,11.07-5.72-22.79-20.94-25.77-33.41-36.83-8.39-7.44-11.01-19.42-5.35-29.23l6.91-11.97c6.35-11.01,1.81-25.38-10.07-30.16-8.68-3.49-15.71-8.01-23.13-14.61,1.25-13.68,2.29-27.37,4.98-41.51,1.24-6.51,6.87-12.18,12.29-15.5l22.33-13.68c8.57-5.25,14.52-14.62,12.36-24.59-3.27-15.09,10.24-25.25,24.16-31.95,22.3-10.73,46.56-13.67,71.19-11.08,8.81-6.02,17.12-11.28,27.06-14.48,21.63-6.96,53.72-10.86,74.13-2.41-4.14,6.87-8.51,11.2-15.22,14.43-4.77,2.3-10.27,6.43-12.26,11.54l-9.78,25.15c-5.27,13.57-.98,26.51,9.68,35.76,8.04,6.97,14.25,15.97,16.45,26.56,2.66,12.85-9.36,25.18,1.38,40.64,10.48,15.09,22.23,39.33,17.45,56.88-7.52,3.24-13.51,9-14.78,17.21-1.85,12.01-13.57,6.61-20.58,17.5-7.44.28-13.02-3.77-18.18-8.43-9.72-8.79-23.08-8.86-32.68-.51-6.7,5.83-14,6.8-22.51,4.52-11.4-3.07-25.01.25-31.45,10.84Z"/>
    <path class="st1" d="M615.04,1207.8l-4.86-6.48c-10.72-8.83-12.46-23.63-3.99-34.83,2.67-3.52,3.9-7.89,4.45-12.48.93-7.83,7.08-14.18,14.87-16.04l18.49-4.41c9.05-2.16,14.86-9.42,16.93-18.14.8-9.81,5.55-17.77,12.19-24.76,5.1-5.37,8.04-12.24,9.33-19.94,14.94,8.16,34.99,7.28,45.2,19.04,7.76,8.94,17.07,13.99,29.18,14.99,18.27,1.51,36.43-2.38,53.21-10.11,10.82-4.99,21.06-5.02,31.86-.16,22.5,10.12,55.4,10.59,72.92-9,5.47-6.11,11.33-10.95,20.02-12.14,7.15-.98,14.05-4.34,19.37-9.39l10.21-9.71c3.3,8.35,6.99,16.42,15.28,19.17,27.82,9.23,11.18,36.12,30.24,46.85,6.61,3.72,12.19,8.7,13.4,16.72l2.65,17.54-20.12,17.09c-10.37,10.49-21.92,18.87-35.93,23.97-11.31,4.12-22.46,6.73-34.64,7.34-10.07.5-16.64,8.75-34.05,6.68-4.19-.5-8.6.08-12.59,1.52-20.1,7.28-40.72,8.55-61.65,4.21-10.51-2.18-20.32-2.11-30.75.39-9.88,2.36-19.6,3.64-29.82,3.86-4.94.11-8.89,2.09-13.22,4.14-23.48,11.14-49.68,14.29-75.25,9.91-10.14-1.74-18.84-5.41-27.1-11.09-13.33-1.39-25.45-5.48-35.82-14.71Z"/>
    <path class="st1" d="M821.09,876.44c-27.37-15.39-39.3,5.94-56.64.62-8.08-2.48-16.49-3.98-24.96-4.66-4.87-.39-6.59-2.48-9.33-5.8-8.46-10.24-9.01-23.2.85-33.01,7-6.95,11.52-16.44,8.54-26.49-1.37-4.6-1.9-9.81-.84-14.46,3.03-13.28-8.89-18.05-12.95-31.68-4.53-15.2,11.55-35.91-14.57-51.32l-10-5.9c-5.84-3.45-7.99-10.72-6.7-17.31,1.42-7.26-.22-13.42-2.87-20.16l-3.95-10.03c6.8-11.79,19.03-4.42,22.05-21.86,1.18-6.8,8.58-11.62,14.57-13.9,17.79,4.42,30.05-6.25,44.5,5.7,16.03,13.26,37.98,12.16,53.77-.52,13.48-10.83,22.88-2.27,34.25-6.69l11.32-4.4c10.49,6.13,1.97,19.43,17.45,22.78,7.8,1.69,11.12,9.88,19.65,8.68,11.29-1.59,20.64,4.51,24.07,15.74,1.2,3.94,1.81,9.77,4.37,13.17l8.46,11.26c-9.65,9.52-3.61,16.22-15.07,24.99l-10.1,7.73c-4.93,3.77-5.56,10.25-4.31,16.11,1.07,5.01-.49,10.07-3.86,13.74-5.45,5.94-4.83,13.79.56,19.63,5.55,6.01,8.18,14.33,5.17,22.29-4.42,11.71-14.06,17.8-11.58,26.9,2.62,9.61-.72,17.94-7.82,24.5-6.6,6.1-10.06,13.74-8.93,23.25l-12.95,3.73c-6.11,3.04-10.86,5.73-18.05,5.49-11.91-.39-20.19,9.72-34.11,1.89Z"/>
    <path class="st1" d="M1227.64,780.51l-19.3,9.46-11.23-3.58c-3.66-1.17-6.73-2.99-8.6-6.4-7.16-13.02-21.54-15.58-36.47-14.04-11.5,1.19-8.84-9.96-19.42-16.93-4.94-3.26-7.23-7.69-7.54-13.56-.89-16.57-14.47-28.56-30.64-27.33-5.99.45-10.5-3.42-12.4-8.51-5.27-14.11-15.7-22.73-30.64-19.16-7.26,1.73-11.38-1.42-15.19-7.16-3.1-4.68-9.48-7.7-14.6-10.11,1.93-6.1,3.27-12.49,3.28-18.86.04-22.66,21.63-21.21,31.48-31.59,5.53-5.82,11.07-10.34,18.13-13.97,24.73-12.73,15.24-38.7,26.09-44.86l12.37-7.03,23.18,16.63c13.57,9.74,29.31,12.57,45.34,8.42l26.28-6.79c7.82-2.02,15.54-2.22,23.18.64,7.69,2.87,15.22,3.3,23.32,2.11,15.03-2.21,33.08,6.28,38.16,22.3,2.17,6.85,7.19,11.43,14.29,12.75,10.44,1.95,18.03,10.14,19.13,20.8l1.18,11.47-10.25,19.01c-3.13,5.81-2.6,12.28.55,17.98,6.21,11.24-.07,23.34-10.62,29.69-5.81,3.5-9.24,8.72-9.41,15.57-.24,10.01-6.92,17.69-16.13,21.01-5.79,2.09-10.29,6.48-11.34,12.73-1.21,7.21-5.28,13.26-11.98,17.03l-30.18,12.3Z"/>
    <path class="st1" d="M1357.31,1064.86c6.6-8.33,8.8-17.81,6.84-27.91-.76-3.91.42-8.12,2.06-11.63l7.65-16.4c5.03-5.85,10.1-12.5,17.19-15.65l13.87-6.17c15.35-11.82,18.44-32.35,9.29-49.01-2.94-5.36-4.68-12.04-3.31-17.86,1.72-7.27,8.17-11.31,14.85-13.27,10.3-3.03,19.47-8.7,24.97-17.92,8.08-13.57,7.74-29.5,1.26-43.68-7.88-17.24-6.33-26.71,5.04-40.93,7.68-9.61,9.07-22.32,2.8-33.06l-9.9-16.97c-5.38-9.22-5.98-20.43-.56-29.55,4.66-7.84,13.06-11.13,21.87-9.82,5.41.62,9.64,2.72,14.1,6.06,27.37,20.49,41.84,53.61,38.79,88.13,29.62,37.12,31.5,82.71,15.81,126.9l-12.37,27.08c11.78,39.15,3.16,79.93-21.69,111.67-5.06,16.89-14.6,30.15-27.09,41.96-11.97,11.32-25.09,20.43-41.18,24.84-8.79,2.55-17.53,3.68-26.7,2.63l-1.27-13.23c-.79-8.15-7.33-15.13-15.37-17.28l-23.64-6.3c-16.41-4.37-23.38-17.54-20.15-34.03l6.82-8.61Z"/>
    <path class="st1" d="M843.1,617.85c-18.98-2.87-22.32,11.12-40.55,14.69-11.39,2.23-22.69-.32-31.43-7.72-16.09-13.63-28.85-2-47.26-6.81,2.32-8.68.81-15.66-1.52-23.41-3.45-11.48-8.24-21.93-15.27-31.49-12.16-16.54,1.81-30.18-2.62-44.48-3.4-11-10.52-19.55-18.63-27.29-8.57-8.17-11.44-19.43-7.21-30.65l8.46-22.43c5.73-15.19,20.22-12.65,27.95-27.93l16.26-6.74c9.63-4,20.54-4.25,31.16-4.7,11.68-.49,22.87,1.66,34.19,3.37,6.83,10.37,17.41,16.42,29.73,16.5,9.45.06,16.16,6.74,16.8,16.18s5.83,16.71,15.06,19.95l10.03,4.8c-2.64,10.95,2.29,19.09,10.06,25.97,7.61,6.74,12.41,16.88,10.11,26.94-3.41,14.9-19.39,28.67-12.35,52.39,2.59,8.73,2.31,17.85-2.56,25.84-3.83,6.28-6.16,12.98-5.94,20.77l-6.86,3.34c-5.61,2.73-11.18,3.91-17.61,2.94Z"/>
    <path class="st1" d="M1173.14,570.88c-19.95,4.85-43.05-14.38-58.92-26.39,6.36-12.11,4.55-24.65-4.66-34.29-5.4-5.66-4.45-15.21-.18-21.38,3.88-5.59,8.86-9.77,14.45-13.55l13.27-10.77c7.29-5.92,6.95-17.14.95-25.12,25.24-6.28,51.82,1.94,69.41,20.94,30.59,2.46,58.94,19.39,72.87,47.7-22.18,7.66-32.26,34.81-26.96,57.25-7.56,1.31-14.42.66-21.12-1.81-8.31-3.05-16.48-2.95-25.08-.86l-34.04,8.27Z"/>
    <path class="st1" d="M1346.92,1178.7c-36.96,4.07-57.69-.74-92.11-13.32-11.02-4.02-19.08-12.88-31.82-16.76,13.95-15.5,32.38-10.67,51.99-23.49,7.76-5.07,11.19-11.93,14.58-19.77,5.71-13.21,19.92-18.88,33.45-18.54,9.4.24,16.09-5.55,24.36-10.47-1.79,16.57,6.79,29.42,22.01,33.42l23.66,6.21c6.62,1.74,13.16,7.32,13.76,14.14l1.31,14.67c-6.16,21.78-39.49,31.53-61.19,33.91Z"/>
    <path class="st1" d="M380.18,580.66l-26.22,20.08c-6.73,5.16-15.41,9.02-24.1,7.36-4.01-.77-7.84-5-10.92-7.62,1.05-8.66,3.79-16.13,8.22-23.56,15.19-25.45,40.32-42.56,69.41-49.6,3.85-10.24,9.91-18.38,18.33-25.62,21.16-18.21,46.08-30.68,73.32-37.37l26.16-6.42.4,9.69c.24,5.77.39,11.26-3.48,15.8-3.25,3.81-7.42,7.43-11.75,10.04l-21.85,13.15c-5.32,4.74-9.83,10.21-10.67,17.54l-4.42,38.76c-10.87,2.97-21.34,7.42-31.35,13.12-6.74,3.84-13.98,3.82-21.03.97-10-3.8-20.95-3.28-30.05,3.68Z"/>
    <path class="st1" d="M1329.55,633.49l-2.15-14.39c-1.45-9.67-10.07-16.27-19.38-18.35-6.98-1.56-11.06-5.32-13.36-11.91-5.73-16.39-20.97-23.37-38.71-24.36-4.2-16.93,1.12-36.09,13.9-47.82,6.84-6.28,15.38-8.23,24.03-6.73,31.44,5.2,62.06,27.75,70.76,59.08,29.82,10.61,56.99,33.73,60.53,66.79-31.83-15.19-63.27-17.55-95.61-2.32Z"/>
    <path class="st1" d="M277.59,724.19c-20.88,19.89-23.25,47.88-11.95,74.11-16.2.87-31.15,6.78-43.43,17.46-3.72,3.23-7.71,5.69-12.67,5.01-7.11-34.83-1.89-70.58,14.79-101.67,5.4-10.07,11.76-18.58,20.57-25.76,1.62-9.8,3.88-19.36,8.09-28.82,11.96-26.86,35.48-54.67,64.19-62.09,3.55,3.68,7.29,6.12,11.48,8.43,2.41,8.3.63,17.38-1.65,25.79-3.57,13.19-12.05,23.15-24.47,28.55-9.84,4.27-14.1,13.78-11.71,24.19,3.15,13.73-3.21,25.25-13.25,34.81Z"/>
    <path class="st1" d="M868.95,457.16l-9.61-4.39c-8.6-2.53-13.08-9.43-13.77-18.22-.84-10.58-8.5-18.11-19.11-18.17-11.67-.07-21.05-5.53-27.92-15.51,19.08-12.95,48.91-14.04,73.08-11.61,20.22,2.03,44.49,6.79,60.92,18.38l-3.91,9.42c-2.69,6.49-8.6,10.69-15.41,12.57l-17.99,4.95c-11.5,3.16-21.24,11.16-26.29,22.59Z"/>
    <path class="st1" d="M994.53,1304.75c-25.83-1.11-49.75-10.8-69.97-26.09-21.18-16.01-33.31-41.12-26.89-67.23,12.15,1.66,22.02.1,32.31-5.16l15.36-1.46c-9.8,18.42-8.19,39.98,5.13,55.91l10.36,13.64c8.17,13.1,19.98,21.73,33.69,30.37Z"/>
  </g>
</svg>