<svg width="324" height="856" viewBox="0 0 324 856" fill="none" xmlns="http://www.w3.org/2000/svg">
<path d="M8.98307 841.119C14.5831 836.719 22.6497 826.285 25.9831 821.619C42.9831 805.619 42.9832 751.119 44.4832 691.619C45.6832 644.019 56.9832 601.452 62.4832 586.119C70.9832 563.785 88.5832 506.219 90.9832 454.619C93.9832 390.119 101.983 285.619 99.9832 274.619C97.9832 263.619 86.4832 253.619 73.4832 258.119C63.0832 261.719 57.8165 276.619 56.4832 283.619C54.4832 297.119 50.3832 332.119 49.9832 364.119C49.5832 396.119 46.4832 408.452 44.9832 410.619C40.6498 418.119 31.5832 435.619 29.9832 445.619C27.9832 458.119 31.9832 471.619 31.9832 477.619C31.9832 483.619 6.98315 499.119 4.98315 477.619C2.98315 456.119 7.48315 449.619 14.4832 426.119C20.0832 407.319 24.4832 382.285 25.9832 372.119C26.8165 366.785 29.1832 339.319 31.9832 272.119C35.4832 188.119 43.4832 184.619 52.9832 161.619C62.4832 138.619 97.4832 129.119 115.483 132.119C129.883 134.519 128.15 115.452 125.483 105.619C123.15 95.4521 117.883 70.6188 115.483 52.6187C113.083 34.6185 118.15 27.4519 120.983 26.1187C128.483 22.1187 146.583 12.5188 158.983 6.1188C174.483 -1.8812 178.983 2.1188 190.983 6.1188C200.583 9.3188 203.983 17.7855 204.483 21.6188V75.1188C204.483 85.9188 199.483 99.9521 196.983 105.619C192.15 123.285 195.083 162.019 245.483 175.619C295.883 189.219 304.483 233.285 302.483 253.619C302.816 305.619 303.283 413.819 302.483 430.619C301.483 451.619 309.483 454.619 316.983 468.619C324.483 482.619 323.983 499.619 316.983 510.619C309.983 521.619 301.483 511.119 287.983 504.119C274.483 497.119 278.483 499.619 282.483 463.119C285.683 433.919 281.15 411.285 278.483 403.619C276.65 397.452 273.083 375.919 273.483 339.119C273.883 302.319 268.65 277.452 265.983 269.619C253.183 218.419 241.65 261.286 237.483 289.119L240.483 474.619V547.619C238.15 559.452 233.583 593.619 233.983 635.619C234.483 688.119 230.483 683.619 226.983 716.619C224.183 743.019 225.816 771.953 226.983 783.119C227.65 795.952 233.583 821.619 251.983 821.619C270.383 821.619 269.65 827.952 266.983 831.119C246.483 856.619 198.483 847.119 185.983 841.119C173.483 835.118 180.483 821.619 188.983 803.119C197.483 784.62 195.483 756.619 188.983 738.119C183.783 723.319 182.816 711.952 182.983 708.119C182.483 636.786 181.283 492.219 180.483 484.619C179.683 477.019 171.15 479.119 166.983 481.119C138.483 510.619 128.983 550.619 126.983 567.119C124.983 583.619 102.983 667.619 95.4832 691.619C87.9832 715.619 65.4832 754.119 58.4832 774.119C51.4832 794.119 56.4832 803.619 58.4832 821.619C60.0832 836.019 51.4832 842.952 46.9832 844.619C41.3165 847.619 26.4831 853.719 12.4831 854.119C-5.01693 854.619 1.98307 846.619 8.98307 841.119Z" fill="#FBC2DD" stroke="#221A1E" stroke-width="3" stroke-linecap="round"/>
</svg>
