<svg width="107" height="313" viewBox="0 0 107 313" fill="none" xmlns="http://www.w3.org/2000/svg">
<path d="M2.97166 307.735C4.82133 306.125 7.48573 302.307 8.58672 300.599C14.2018 294.745 14.2018 274.802 14.6973 253.029C15.0936 235.612 18.826 220.036 20.6426 214.425C23.4502 206.252 29.2634 185.188 30.0561 166.306C31.047 142.704 33.6894 104.465 33.0288 100.44C32.3682 96.4149 28.5698 92.7558 24.2759 94.4024C20.8408 95.7196 19.1012 101.172 18.6608 103.733C18.0002 108.673 16.646 121.481 16.5139 133.19C16.3818 144.9 15.3579 149.413 14.8624 150.205C13.4311 152.95 10.4364 159.353 9.90794 163.013C9.24735 167.587 10.5685 172.527 10.5685 174.722C10.5685 176.918 2.31109 182.59 1.6505 174.722C0.989902 166.855 2.47624 164.476 4.78833 155.877C6.63799 148.998 8.0913 139.838 8.58675 136.117C8.862 134.166 9.6437 124.115 10.5685 99.5253C11.7246 68.7878 14.367 67.5071 17.5048 59.0909C20.6426 50.6747 32.203 47.1985 38.1484 48.2962C42.9047 49.1744 42.3322 42.1976 41.4514 38.5993C40.6807 34.8791 38.9411 25.7921 38.1484 19.2054C37.3557 12.6188 39.0292 9.99638 39.965 9.5085C42.4423 8.04483 48.4207 4.53202 52.5164 2.19012C57.636 -0.737254 59.1223 0.726433 63.0859 2.19012C66.2567 3.36107 67.3798 6.45921 67.5449 7.86191V27.4387C67.5449 31.3907 65.8934 36.5258 65.0677 38.5993C63.4712 45.064 64.4401 59.2373 81.0871 64.2139C97.7341 69.1904 100.575 85.3154 99.9141 92.7558C100.024 111.784 100.178 151.376 99.9141 157.524C99.5838 165.208 102.226 166.306 104.703 171.429C107.181 176.552 107.015 182.773 104.703 186.798C102.391 190.823 99.5838 186.981 95.1248 184.419C90.6658 181.858 91.9869 182.773 93.3081 169.416C94.3651 158.731 92.8677 150.449 91.9869 147.644C91.3814 145.388 90.2033 137.508 90.3355 124.042C90.4676 110.576 88.739 101.477 87.8582 98.6107C83.6304 79.8755 79.821 95.5613 78.4447 105.746L79.4356 173.625V200.337C78.6649 204.667 77.1566 217.169 77.2887 232.538C77.4538 251.749 76.1327 250.102 74.9766 262.178C74.0518 271.838 74.5913 282.425 74.9766 286.512C75.1968 291.207 77.1566 300.599 83.2341 300.599C89.3115 300.599 89.0693 302.917 88.1885 304.076C81.4174 313.407 65.5631 309.931 61.4344 307.735C57.3057 305.539 59.6178 300.599 62.4253 293.83C65.2328 287.061 64.5722 276.815 62.4253 270.045C60.7077 264.629 60.3885 260.47 60.4435 259.067C60.2784 232.965 59.882 180.065 59.6178 177.284C59.3535 174.503 56.535 175.271 55.1587 176.003C45.7453 186.798 42.6074 201.434 41.9468 207.472C41.2862 213.51 34.0197 244.247 31.5424 253.029C29.0652 261.812 21.6335 275.9 19.3214 283.218C17.0093 290.536 18.6608 294.013 19.3214 300.599C19.8499 305.869 17.0093 308.406 15.523 309.016C13.6513 310.113 8.75187 312.345 4.1277 312.492C-1.65251 312.675 0.659577 309.747 2.97166 307.735Z" fill="#C97C7C" stroke="#221A1E" stroke-linecap="round"/>
</svg>
